Coordinates
version=1
nRows=18
nColumns=19
inDegrees=yes

Units are S.I. units (second, meters, Newtons, ...)
If the header above contains a line with 'inDegrees', this indicates whether rotational values are in degrees (yes) or radians (no).

endheader
time	pelvis_tilt	pelvis_list	pelvis_rotation	pelvis_tx	pelvis_ty	pelvis_tz	hip_flexion_r	hip_adduction_r	hip_rotation_r	knee_angle_r	knee_angle_r_beta	ankle_angle_r	hip_flexion_l	hip_adduction_l	hip_rotation_l	knee_angle_l	knee_angle_l_beta	ankle_angle_l
     13.50666667	     -4.92941042	      7.44265787	     -0.75628196	      2.27998517	      0.96821587	      1.00150700	    -11.18525830	     -8.69978507	     -7.43039347	     74.70589069	      1.30386376	    -20.99341788	     28.69879127	      6.95247323	    -11.40732321	     10.74706579	      0.18757168	     -8.83249245
     13.51333333	     -4.51624962	      8.06795839	     -0.36478440	      2.27933194	      0.96430075	      1.00065777	     -9.92513333	     -9.64133267	     -7.48162381	     78.83107424	      1.37586180	    -20.03338283	     27.92782227	      7.88195424	    -12.09059601	     12.25554028	      0.21389953	     -8.33974464
     13.52000000	     -4.01509808	      8.74441977	      0.11890597	      2.27847320	      0.96012211	      0.99989285	     -8.70012770	    -10.57157275	     -7.50508929	     82.89137619	      1.44672744	    -18.93757784	     27.12647845	      8.86623407	    -12.54339160	     14.23781351	      0.24849672	     -7.30204933
     13.52666667	     -4.34214494	      9.26660677	      0.52569402	      2.27712656	      0.95467966	      0.99920396	     -6.27378263	    -11.40330968	     -7.17464385	     87.14900656	      1.52103710	    -17.89503307	     27.46201847	      9.49727272	    -13.29366169	     16.99931173	      0.29669396	     -5.80659765
     13.53333333	     -3.74413156	     10.05277065	      1.14212229	      2.27575577	      0.94998453	      0.99858692	     -4.98983228	    -12.48606553	     -7.20762761	     91.08673785	      1.58976348	    -16.67484965	     26.65372709	     10.55646686	    -13.51523368	     19.74814938	      0.34467023	     -3.80749068
     13.54000000	     -4.20578047	     10.47159130	      1.72621398	      2.27381131	      0.94406717	      0.99812050	     -2.19725425	    -13.11095409	     -6.71338989	     95.16659085	      1.66097035	    -15.49523978	     27.12828780	     11.11604097	    -13.66645008	     22.99137429	      0.40127518	     -1.43901275
     13.54666667	     -4.27405156	     10.97409923	      2.44098317	      2.27162900	      0.93858508	      0.99771868	      0.18141079	    -13.81838584	     -6.34616554	     99.01102973	      1.72806846	    -14.27752886	     27.03444442	     11.87126718	    -13.40543037	     26.13066595	      0.45606616	      1.23391909
     13.55333333	     -4.36117213	     11.37979149	      3.21786842	      2.26910511	      0.93330204	      0.99739607	      2.71275495	    -14.38294806	     -5.88880040	    102.66828879	      1.79189968	    -13.09615988	     26.85701588	     12.57955963	    -12.84425913	     29.21128210	      0.50983305	      4.10034438
     13.56000000	     -4.54345446	     11.65537485	      4.09585996	      2.26623821	      0.92824817	      0.99708594	      5.47194716	    -14.80244899	     -5.39979675	    106.11179907	      1.85200027	    -11.97030817	     26.63023967	     13.22953628	    -11.94702250	     32.11895203	      0.56058147	      7.06565596
     13.56666667	     -4.11780725	     12.01184571	      4.86392124	      2.26327447	      0.92435440	      0.99693895	      7.62242278	    -15.30733056	     -4.88080088	    109.17395947	      1.90544505	    -10.85628901	     25.47203970	     13.94269934	    -10.91414971	     34.57938910	      0.60352419	     10.04780612
     13.57333333	     -4.96034292	     11.72021365	      5.86022259	      2.25971393	      0.91966313	      0.99659131	     11.48782807	    -15.09421052	     -4.19951395	    112.11693433	      1.95680965	     -9.97350406	     25.65591984	     14.10219945	     -9.50352307	     37.04833216	      0.64661538	     12.90621249
     13.58000000	     -5.14914322	     11.50056135	      6.71217403	      2.25635906	      0.91641420	      0.99635906	     14.64374790	    -14.96454887	     -3.56292077	    114.55327487	      1.99933182	     -9.10167313	     24.78818963	     14.26293071	     -8.05200144	     38.91979511	      0.67927857	     15.61788837
     13.58666667	     -4.78089317	     11.33643744	      7.34667394	      2.25324255	      0.91455907	      0.99620556	     17.20596662	    -14.88894695	     -2.89472551	    116.48687055	      2.03307943	     -8.26197370	     22.96856181	     14.33496717	     -6.63800721	     40.15471528	      0.70083199	     18.13200044
     13.59333333	     -5.25921264	     10.50539939	      8.12318960	      2.25002371	      0.91252265	      0.99580057	     20.85448410	    -14.14374259	     -2.38780910	    118.03965567	      2.06018064	     -7.61981167	     22.02075408	     13.77531742	     -4.97636808	     41.27780635	      0.72043363	     20.28089576
     13.60000000	     -4.85932499	     10.08578583	      8.52338061	      2.24752041	      0.91240441	      0.99546574	     23.41594648	    -13.81207573	     -1.75130267	    119.00480463	      2.07702567	     -6.96075878	     19.65256061	     13.38704463	     -3.58439429	     41.51495074	      0.72457258	     21.93473173
     13.60666667	     -4.66390242	      8.93797942	      8.91556806	      2.24556665	      0.91287185	      0.99491629	     26.12492336	    -12.70767318	     -1.54795631	    119.38159484	      2.08360190	     -6.31813937	     17.41841624	     12.14515721	     -2.17992097	     41.50320837	      0.72436764	     23.52399885
     13.61333333	     -4.51524976	      8.15833318	      9.11117760	      2.24383681	      0.91387417	      0.99422919	     28.84719022	    -12.04848924	     -1.10141228	    119.45776503	      2.08493132	     -5.72307107	     14.95913081	     11.22790736	     -0.94876271	     40.89454993	      0.71374454	     24.37408534
     13.62000000	     -4.51015982	      7.25213208	      9.08245707	      2.24229538	      0.91505790	      0.99343638	     31.71650866	    -11.28545298	     -0.65852049	    119.23759486	      2.08108862	     -5.15091548	     12.58813632	     10.10141837	     -0.01213428	     40.03019772	      0.69865875	     24.80718080
